<?xml version="1.0" encoding="UTF-8"?>
<svg id="Camada_2" data-name="Camada 2" xmlns="http://www.w3.org/2000/svg" version="1.1" xmlns:xlink="http://www.w3.org/1999/xlink" viewBox="0 0 500 500">
  <defs>
    <style>
      .cls-1 {
        fill: url(#Gradiente_sem_nome_2);
      }

      .cls-1, .cls-2 {
        stroke-width: 0px;
      }

      .cls-2 {
        fill: #fff;
      }

      .cls-3 {
        mask: url(#mask);
      }
    </style>
    <mask id="mask" x="50.84" y="54.54" width="398.32" height="390.92" maskUnits="userSpaceOnUse">
      <g>
        <g>
          <path class="cls-2" d="M396.52,342.97c-.08-2.12-1.86-3.8-3.97-3.98-16.97-1.45-28.52-12.37-34.32-32.45-4.56-15.79-3.71-31.47-3.7-31.62,0-.08,0-.16,0-.25v-60.42c6.01-1.63,10.46-7.12,10.46-13.64,0-7.21-5.42-13.16-12.4-14.03l-.63-4.24-.1-.53c-5.17-22.21-17.86-42.35-35.73-56.73-18.17-14.62-41.04-22.67-64.4-22.67-54.01,0-99.07,42.17-102.58,96-.17,2.58-.21,5.3-.12,8.84.22,9.24-1.95,39.62-39.05,43.07-2.11.2-3.88,1.89-3.95,4.01-.07,2.42,1.86,4.31,4.15,4.31.13,0,.25,0,.38-.02,45.59-4.12,46.97-43.68,46.78-51.57-.08-3.28-.05-5.78.11-8.1,3.23-49.47,44.64-88.23,94.28-88.23,44.16,0,81.97,29.97,92.01,72.89l.65,4.41c-4.56,2.35-7.69,7.1-7.69,12.57,0,6.18,3.99,11.43,9.52,13.35v60.6c-.09,1.72-.77,17.56,3.97,34.09,6.76,23.6,21.23,36.96,41.85,38.65.12,0,.23.01.34.01,2.31,0,4.25-1.92,4.15-4.34ZM349.5,194.93c4.24-.95,7.96,2.77,7.01,7.01-.48,2.14-2.2,3.87-4.34,4.34-4.24.95-7.96-2.77-7.01-7.01.48-2.14,2.2-3.87,4.34-4.34Z"/>
          <path class="cls-2" d="M318.43,332.77c-1.32-5.38-1.99-11.15-1.99-17.15v-104.98c0-18.06-7.51-35.55-20.61-47.99-12.97-12.31-29.84-18.59-47.52-17.67-34.37,1.79-61.3,30.18-61.3,64.71,0,.18.23,18.68-9.12,37.36-12.34,24.68-34.9,38.15-67.05,40.04-2.29.13-4.04,2.1-3.91,4.4.13,2.29,2.12,4.04,4.4,3.91,44.19-2.6,64.72-25.87,74.16-44.93,9.99-20.18,9.87-39.53,9.84-40.9.02-30,23.47-54.72,53.41-56.28,15.37-.8,30.06,4.67,41.36,15.39,11.45,10.87,18.02,26.16,18.02,41.95v104.98c0,6.66.75,13.1,2.23,19.13,2,8.14,4.81,13.89,8.38,17.08.79.71,1.79,1.06,2.78,1.06,1.14,0,2.28-.47,3.1-1.38,1.53-1.71,1.39-4.34-.32-5.88-2.23-2-4.3-6.57-5.85-12.87Z"/>
          <path class="cls-2" d="M203.04,288.42c-1.86-1.35-4.46-.94-5.81.92-30.83,42.45-86.11,40.58-86.85,40.55-2.3-.11-4.24,1.67-4.35,3.96s1.67,4.24,3.96,4.35c.13,0,.87.04,2.13.04,4.79,0,17.12-.45,32.1-4.45,25.17-6.72,45.83-20.4,59.74-39.56,1.35-1.86.94-4.46-.92-5.81Z"/>
          <path class="cls-2" d="M267.91,192.85c-4.01-4.84-9.36-7.51-15.94-7.93-.39-.03-9.56-.48-16.66,6.48-5.62,5.5-8.25,13.83-7.84,24.79.01.34,1.23,34.28-18.72,56.22-1.55,1.7-1.42,4.33.28,5.88,1.7,1.55,4.33,1.42,5.88-.28,22.3-24.53,20.94-60.66,20.87-62.16-.32-8.43,1.45-14.63,5.27-18.42,4.41-4.39,10.38-4.19,10.41-4.19,4.23.27,7.51,1.88,10.03,4.92,7.94,9.57,5.62,29.27,5.59,29.47-.01.08-.02.16-.02.25-2.41,37.03-20.93,66.93-36.03,85.5-16.46,20.23-32.58,31.8-32.84,31.98-1.87,1.33-2.32,3.93-.99,5.8.81,1.14,2.1,1.76,3.4,1.76.83,0,1.67-.25,2.4-.77.69-.49,17.11-12.22,34.32-33.32,15.93-19.52,35.45-51.03,38.04-90.3.24-2.08,2.49-23.66-7.45-35.66Z"/>
          <path class="cls-2" d="M289.38,258.74c-2.3-.1-4.23,1.71-4.31,4-1.69,45.43-16.29,68.64-21.37,75.39-2.3-1-4.92-1.42-7.66-1.03-6.24.89-11.23,5.97-12,12.22-1.13,9.19,6.63,16.94,15.82,15.82,6.34-.78,11.45-5.9,12.25-12.23.44-3.45-.4-6.68-2.07-9.33,5.77-7.41,21.54-31.95,23.35-80.53.09-2.3-1.71-4.23-4-4.31ZM259.41,356.79c-4.24.95-7.96-2.77-7.01-7.01.48-2.14,2.2-3.87,4.34-4.34,4.24-.95,7.96,2.77,7.01,7.01-.48,2.14-2.2,3.87-4.34,4.34Z"/>
          <path class="cls-2" d="M400.69,279.31h-4.22c.02-.18.05-.36.05-.54v-71.5c0-79.84-64.96-144.8-144.8-144.8S107.49,126.87,106.94,206.24l-10.56,10.56c-.78.78-1.22,1.84-1.22,2.94s.44,2.16,1.22,2.94l11.77,11.77c.78.78,1.84,1.22,2.94,1.22s2.16-.44,2.94-1.22l11.77-11.77c1.63-1.62,1.63-4.26,0-5.88l-10.54-10.54c.54-74.8,61.55-135.48,136.47-135.48s136.48,61.22,136.48,136.48v71.5c0,.19.03.36.05.54h-4.22c-2.3,0-4.16,1.86-4.16,4.16v16.64c0,2.3,1.86,4.16,4.16,4.16h16.64c2.3,0,4.16-1.86,4.16-4.16v-16.64c0-2.3-1.86-4.16-4.16-4.16ZM111.08,225.63l-5.88-5.88,5.88-5.88,5.88,5.88-5.88,5.88ZM396.53,295.95h-8.32v-8.32h8.32v8.32Z"/>
        </g>
        <g>
          <path class="cls-2" d="M110.47,422.37l-1.06,4.88h-15.04l13.57-39.18h15.74l13.98,39.18h-15.1l-1.29-4.88h-10.81ZM116.23,401.16h-.53c-.06,1.64-.29,3-.65,4.41l-1.94,7.52h5.7l-1.82-7.52c-.35-1.53-.59-3-.76-4.41Z"/>
          <path class="cls-2" d="M149.95,388.06h14.1v22.73c0,1.18.12,2.82,1.23,3.99.76.82,1.7,1.06,2.82,1.06,1.47,0,2.35-.41,2.88-.94,1.06-1.06,1.06-3.11,1.06-4.11v-22.73h14.16v24.03c0,3.06-.59,7.52-4.11,11.16-3.99,4.11-9.63,4.88-13.98,4.88-3.58,0-10.11-.35-14.57-5.17-3.06-3.29-3.58-6.99-3.58-9.87v-25.03Z"/>
          <path class="cls-2" d="M204.65,427.24v-39.18h17.68c4.11,0,8.4.47,11.98,4.05,2,2,3.7,4.99,3.7,9.63,0,3.47-1.06,5.64-2.17,6.99-1.18,1.47-3.11,2.64-5.4,3.11v.35c.76.41,1.53,1,2.06,1.82l8.81,13.22h-16.39l-5.64-11.46c-.18-.41-.35-.59-.53-1.23l-.24.12v12.57h-13.86ZM218.51,405.51h1.64c.82,0,2.12-.12,3-.88.47-.41,1-1.18,1-2.41,0-.88-.24-1.76-.76-2.35-.47-.53-1.23-1.06-2.41-1.06h-2.47v6.7Z"/>
          <path class="cls-2" d="M291.77,421.84c-3.35,3.41-8.81,6.29-16.27,6.29s-12.92-2.88-16.27-6.29c-3.06-3.11-5.46-7.93-5.46-14.22s2.41-11.04,5.46-14.16c3.35-3.41,8.81-6.29,16.27-6.29s12.92,2.88,16.27,6.29c3.06,3.11,5.46,7.93,5.46,14.16s-2.41,11.1-5.46,14.22ZM270.39,401.81c-1.41,1.47-2.23,3.76-2.23,5.87,0,2.23.82,4.41,2.23,5.82,1.17,1.17,2.94,2,5.11,2s3.94-.82,5.11-2c1.29-1.29,2.23-3.35,2.23-5.82s-.82-4.52-2.23-5.87c-1.06-1.06-2.76-2-5.11-2-2.53,0-4.17,1-5.11,2Z"/>
          <path class="cls-2" d="M313.92,427.24v-39.18h17.68c4.11,0,8.4.47,11.98,4.05,2,2,3.7,4.99,3.7,9.63,0,3.47-1.06,5.64-2.17,6.99-1.17,1.47-3.11,2.64-5.4,3.11v.35c.76.41,1.53,1,2.06,1.82l8.81,13.22h-16.39l-5.64-11.46c-.18-.41-.35-.59-.53-1.23l-.24.12v12.57h-13.86ZM327.78,405.51h1.65c.82,0,2.11-.12,3-.88.47-.41,1-1.18,1-2.41,0-.88-.23-1.76-.76-2.35-.47-.53-1.23-1.06-2.41-1.06h-2.47v6.7Z"/>
          <path class="cls-2" d="M378.43,422.37l-1.06,4.88h-15.04l13.57-39.18h15.74l13.98,39.18h-15.1l-1.29-4.88h-10.81ZM384.18,401.16h-.53c-.06,1.64-.29,3-.65,4.41l-1.94,7.52h5.7l-1.82-7.52c-.35-1.53-.59-3-.76-4.41Z"/>
        </g>
      </g>
    </mask>
    <linearGradient id="Gradiente_sem_nome_2" data-name="Gradiente sem nome 2" x1="250" y1="442.67" x2="250" y2="33.5" gradientUnits="userSpaceOnUse">
      <stop offset=".19" stop-color="#00a5c6"/>
      <stop offset=".39" stop-color="#7ab987"/>
      <stop offset=".55" stop-color="#d7c858"/>
      <stop offset=".62" stop-color="#fccf46"/>
      <stop offset=".65" stop-color="#fcbe4a"/>
      <stop offset=".77" stop-color="#fd8f55"/>
      <stop offset=".87" stop-color="#fe715d"/>
      <stop offset=".92" stop-color="#ff6760"/>
    </linearGradient>
  </defs>
  <g class="cls-3">
    <rect class="cls-1" x="50.84" y="54.54" width="398.32" height="390.92"/>
  </g>
</svg>